<?xml version="1.0" encoding="UTF-8"?>
<svg version="1.1" xmlns="http://www.w3.org/2000/svg" width="500" height="500">
<path d="M0 0 C165 0 330 0 500 0 C500 165 500 330 500 500 C335 500 170 500 0 500 C0 335 0 170 0 0 Z " fill="#F9F9F9" transform="translate(0,0)"/>
<path d="M0 0 C2.09087058 1.04926191 2.09087058 1.04926191 4.24609375 0.75390625 C6.63063162 -0.32376833 7.64564188 -1.59537229 9.21875 -3.671875 C10.69140625 -5.61328125 10.69140625 -5.61328125 12.15625 -7.109375 C13.14625 -7.109375 14.13625 -7.109375 15.15625 -7.109375 C15.15625 7.410625 15.15625 21.930625 15.15625 36.890625 C13.17625 36.395625 13.17625 36.395625 11.15625 35.890625 C11.00929688 35.07980469 10.86234375 34.26898438 10.7109375 33.43359375 C8.45881487 22.31535616 4.50521026 11.91606676 -4.84375 4.890625 C-16.26236622 -1.8864208 -29.12385004 -3.12714783 -42.13671875 -0.42578125 C-44.57667409 0.48589198 -46.64737646 1.49610212 -48.84375 2.890625 C-49.4934375 3.303125 -50.143125 3.715625 -50.8125 4.140625 C-56.58173945 8.44310866 -60.13551157 14.53557992 -61.2890625 21.62890625 C-61.59876779 28.92762762 -60.1844287 35.9609319 -55.359375 41.63671875 C-47.4492683 48.37430964 -35.69224194 51.1755661 -25.84375 53.890625 C-25.84375 54.220625 -25.84375 54.550625 -25.84375 54.890625 C-41.02375 54.890625 -56.20375 54.890625 -71.84375 54.890625 C-76.68788619 40.35821643 -77.26068651 30.63034693 -71.21875 16.828125 C-65.39799464 6.149446 -56.1113513 -1.21932711 -44.71484375 -5.203125 C-29.30495111 -9.28721925 -13.82230866 -8.01693902 0 0 Z " fill="#090909" transform="translate(345.84375,175.109375)"/>
<path d="M0 0 C20.79 0 41.58 0 63 0 C63 1.32 63 2.64 63 4 C56.4 4 49.8 4 43 4 C43 22.15 43 40.3 43 59 C35.41 59 27.82 59 20 59 C20 40.85 20 22.7 20 4 C13.4 4 6.8 4 0 4 C0 2.68 0 1.36 0 0 Z " fill="#090909" transform="translate(186,171)"/>
<path d="M0 0 C20.79 0 41.58 0 63 0 C63 1.32 63 2.64 63 4 C56.4 4 49.8 4 43 4 C43 22.15 43 40.3 43 59 C35.41 59 27.82 59 20 59 C20 40.85 20 22.7 20 4 C13.4 4 6.8 4 0 4 C0 2.68 0 1.36 0 0 Z " fill="#090909" transform="translate(102,171)"/>
<path d="M0 0 C7.59 0 15.18 0 23 0 C23 17.82 23 35.64 23 54 C29.6 54 36.2 54 43 54 C43 55.32 43 56.64 43 58 C22.21 58 1.42 58 -20 58 C-20 56.68 -20 55.36 -20 54 C-13.4 54 -6.8 54 0 54 C0 36.18 0 18.36 0 0 Z " fill="#090909" transform="translate(206,269)"/>
<path d="M0 0 C7.59 0 15.18 0 23 0 C23 17.82 23 35.64 23 54 C29.6 54 36.2 54 43 54 C43 55.32 43 56.64 43 58 C22.21 58 1.42 58 -20 58 C-20 56.68 -20 55.36 -20 54 C-13.4 54 -6.8 54 0 54 C0 36.18 0 18.36 0 0 Z " fill="#0A0A0A" transform="translate(122,269)"/>
<path d="M0 0 C5.94 0 11.88 0 18 0 C18.85759175 16.00837931 15.83933174 29.59944763 5 42 C-3.09776469 50.6918092 -14.64757862 57.71307717 -26.72265625 58.37109375 C-44.34843409 58.77808329 -56.36098382 53.75934412 -71 44 C-71.53109375 44.77085937 -72.0621875 45.54171875 -72.609375 46.3359375 C-73.66898437 47.84027344 -73.66898437 47.84027344 -74.75 49.375 C-75.44609375 50.37273437 -76.1421875 51.37046875 -76.859375 52.3984375 C-78.86722376 54.83863326 -80.09043174 55.91218844 -83 57 C-84 56 -84 56 -84.12025452 54.17137146 C-84.11803391 53.37417191 -84.11581329 52.57697235 -84.11352539 51.75561523 C-84.11344986 50.85475693 -84.11337433 49.95389862 -84.11329651 49.02574158 C-84.10813522 48.04658279 -84.10297394 47.06742401 -84.09765625 46.05859375 C-84.0962413 45.06118668 -84.09482635 44.0637796 -84.09336853 43.03614807 C-84.08775114 39.83656876 -84.07519571 36.63705831 -84.0625 33.4375 C-84.05748724 31.27408955 -84.05292395 29.11067801 -84.04882812 26.94726562 C-84.03777607 21.63148675 -84.02102104 16.31574829 -84 11 C-82.68 11 -81.36 11 -80 11 C-79.64808594 12.02738281 -79.29617188 13.05476563 -78.93359375 14.11328125 C-72.72187226 31.75585104 -65.18087823 42.33551125 -48.171875 50.6171875 C-38.14474798 54.98861972 -25.68418061 54.15911335 -15.6171875 50.2578125 C-6.66527512 45.95555013 -0.39671218 39.14218854 3.40014648 29.94262695 C4.46225602 26.50298284 4.4425741 23.13633032 4.375 19.5625 C4.36847412 18.81403809 4.36194824 18.06557617 4.35522461 17.29443359 C4.22490909 11.94273183 3.41572367 7.83144733 1 3 C0.505 1.515 0.505 1.515 0 0 Z " fill="#090909" transform="translate(351,270)"/>
<path d="M0 0 C4.59037956 1.14759489 5.33669182 2.29039218 8 6 C8.33 4.02 8.66 2.04 9 0 C9.99 0 10.98 0 12 0 C12 4.29 12 8.58 12 13 C7.40962044 11.85240511 6.66330818 10.70960782 4 7 C3.67 8.98 3.34 10.96 3 13 C2.01 13 1.02 13 0 13 C0 8.71 0 4.42 0 0 Z " fill="#131313" transform="translate(317,242)"/>
<path d="M0 0 C0.99 0 1.98 0 3 0 C3 1.65 3 3.3 3 5 C4.65 5 6.3 5 8 5 C8 3.35 8 1.7 8 0 C9.32 0 10.64 0 12 0 C12 4.29 12 8.58 12 13 C11.01 13 10.02 13 9 13 C9 11.35 9 9.7 9 8 C7.02 8 5.04 8 3 8 C3 9.65 3 11.3 3 13 C2.01 13 1.02 13 0 13 C0 8.71 0 4.42 0 0 Z " fill="#383838" transform="translate(146,242)"/>
<path d="M0 0 C1.98 0 3.96 0 6 0 C6.5534764 2.07553648 7 3.84365964 7 6 C7.66 6 8.32 6 9 6 C9.33 7.65 9.66 9.3 10 11 C6.61401171 12.04184255 3.53318313 12.23042499 0 12 C-0.66 11.34 -1.32 10.68 -2 10 C-1.7578125 7.6171875 -1.7578125 7.6171875 -1.125 4.875 C-0.92132813 3.96492187 -0.71765625 3.05484375 -0.5078125 2.1171875 C-0.34023437 1.41851562 -0.17265625 0.71984375 0 0 Z " fill="#333333" transform="translate(238,243)"/>
<path d="M0 0 C3.3 0 6.6 0 10 0 C10 0.99 10 1.98 10 3 C7.69 3 5.38 3 3 3 C3 3.99 3 4.98 3 6 C4.98 6 6.96 6 9 6 C9 6.66 9 7.32 9 8 C7.02 8 5.04 8 3 8 C3 8.99 3 9.98 3 11 C5.31 11 7.62 11 10 11 C10 11.66 10 12.32 10 13 C6.7 13 3.4 13 0 13 C0 8.71 0 4.42 0 0 Z " fill="#232323" transform="translate(338,242)"/>
<path d="M0 0 C0.66 0 1.32 0 2 0 C2 1.32 2 2.64 2 4 C4.31 4 6.62 4 9 4 C9 2.68 9 1.36 9 0 C9.66 0 10.32 0 11 0 C11 3.96 11 7.92 11 12 C10.01 12 9.02 12 8 12 C8 10.35 8 8.7 8 7 C6.35 7 4.7 7 3 7 C3 8.65 3 10.3 3 12 C2.01 12 1.02 12 0 12 C0 8.04 0 4.08 0 0 Z " fill="#1D1D1D" transform="translate(285,243)"/>
<path d="M0 0 C0.66 0 1.32 0 2 0 C2 1.32 2 2.64 2 4 C4.31 4 6.62 4 9 4 C9 2.68 9 1.36 9 0 C9.66 0 10.32 0 11 0 C11 3.96 11 7.92 11 12 C10.01 12 9.02 12 8 12 C8 10.35 8 8.7 8 7 C6.35 7 4.7 7 3 7 C3 8.65 3 10.3 3 12 C2.01 12 1.02 12 0 12 C0 8.04 0 4.08 0 0 Z " fill="#1D1D1D" transform="translate(205,243)"/>
<path d="M0 0 C2.33944736 0.28730055 4.6739143 0.61936779 7 1 C7 1.66 7 2.32 7 3 C5.02 3 3.04 3 1 3 C1.84566739 5.27173092 1.84566739 5.27173092 4.5 5.875 C7 7 7 7 7.8125 9.125 C7.874375 9.74375 7.93625 10.3625 8 11 C4.3558226 13.4294516 2.28758728 13.16179575 -2 13 C-2 12.01 -2 11.02 -2 10 C-0.02 10 1.96 10 4 10 C3.071875 9.566875 3.071875 9.566875 2.125 9.125 C0 8 0 8 -2 6 C-1.44444444 1.44444444 -1.44444444 1.44444444 0 0 Z " fill="#1D1D1D" transform="translate(269,242)"/>
<path d="M0 0 C0.33 0.99 0.66 1.98 1 3 C-0.98 3 -2.96 3 -5 3 C-5 3.66 -5 4.32 -5 5 C-2.69 5.66 -0.38 6.32 2 7 C2 8.65 2 10.3 2 12 C-0.95664519 13.4783226 -3.74229737 13.06032783 -7 13 C-7.33 12.01 -7.66 11.02 -8 10 C-5.69 10.33 -3.38 10.66 -1 11 C-1 10.01 -1 9.02 -1 8 C-3.97 7.505 -3.97 7.505 -7 7 C-7.33 5.35 -7.66 3.7 -8 2 C-4.77208445 -0.1519437 -3.71599191 -0.20086443 0 0 Z " fill="#282828" transform="translate(194,242)"/>
<path d="M0 0 C0.99 0 1.98 0 3 0 C3.08121924 1.60332791 3.13929134 3.20784026 3.1875 4.8125 C3.22230469 5.70582031 3.25710937 6.59914062 3.29296875 7.51953125 C3 10 3 10 1.6796875 11.8046875 C-0.88300528 13.6283712 -2.94931298 13.32454117 -6 13 C-8 11 -8 11 -8.1953125 8.6171875 C-8.17210937 7.71226562 -8.14890625 6.80734375 -8.125 5.875 C-8.10695312 4.96492187 -8.08890625 4.05484375 -8.0703125 3.1171875 C-8.04710937 2.41851562 -8.02390625 1.71984375 -8 1 C-7.34 1 -6.68 1 -6 1 C-5.67 3.64 -5.34 6.28 -5 9 C-3.68 9.33 -2.36 9.66 -1 10 C-0.67 6.7 -0.34 3.4 0 0 Z " fill="#0A0A0A" transform="translate(175,242)"/>
<path d="M0 0 C1.32 0 2.64 0 4 0 C4 4.29 4 8.58 4 13 C2.68 13 1.36 13 0 13 C0 8.71 0 4.42 0 0 Z " fill="#4C4C4C" transform="translate(305,242)"/>
<path d="M0 0 C4 1 4 1 5 2 C5.04063832 3.66617115 5.042721 5.33388095 5 7 C4.67 7 4.34 7 4 7 C3.67 8.98 3.34 10.96 3 13 C2.01 13 1.02 13 0 13 C0 8.71 0 4.42 0 0 Z " fill="#2D2D2D" transform="translate(317,242)"/>
<path d="M0 0 C1.65 0 3.3 0 5 0 C6.4606285 2.64738916 7 3.89448334 7 7 C4 7 4 7 1 6 C0.67 6.66 0.34 7.32 0 8 C0 5.36 0 2.72 0 0 Z " fill="#929292" transform="translate(279,346)"/>
<path d="M0 0 C0.66 0 1.32 0 2 0 C2 3.96 2 7.92 2 12 C1.01 12 0.02 12 -1 12 C-1 10.02 -1 8.04 -1 6 C-2.32 5.67 -3.64 5.34 -5 5 C-3.68 4.67 -2.36 4.34 -1 4 C-0.67 2.68 -0.34 1.36 0 0 Z " fill="#0E0E0E" transform="translate(294,243)"/>
<path d="M0 0 C0.66 0 1.32 0 2 0 C2 3.96 2 7.92 2 12 C1.01 12 0.02 12 -1 12 C-1 10.02 -1 8.04 -1 6 C-2.32 5.67 -3.64 5.34 -5 5 C-3.68 4.67 -2.36 4.34 -1 4 C-0.67 2.68 -0.34 1.36 0 0 Z " fill="#0E0E0E" transform="translate(214,243)"/>
<path d="M0 0 C1.98 0 3.96 0 6 0 C4.68 0.33 3.36 0.66 2 1 C2 1.66 2 2.32 2 3 C2.99 3 3.98 3 5 3 C5 3.66 5 4.32 5 5 C4.01 5 3.02 5 2 5 C2 5.66 2 6.32 2 7 C3.32 7.33 4.64 7.66 6 8 C4.02 8 2.04 8 0 8 C0 5.36 0 2.72 0 0 Z " fill="#777777" transform="translate(213,346)"/>
<path d="M0 0 C0.66 0 1.32 0 2 0 C2 1.65 2 3.3 2 5 C-0.95664519 6.4783226 -3.74229737 6.06032783 -7 6 C-7.33 5.01 -7.66 4.02 -8 3 C-5.36 3.33 -2.72 3.66 0 4 C0 2.68 0 1.36 0 0 Z " fill="#151515" transform="translate(194,249)"/>
<path d="M0 0 C0.99 0 1.98 0 3 0 C3 3.3 3 6.6 3 10 C2.01 9.67 1.02 9.34 0 9 C0 6.03 0 3.06 0 0 Z " fill="#1B1B1B" transform="translate(175,242)"/>
<path d="M0 0 C2.31 0.33 4.62 0.66 7 1 C7 1.66 7 2.32 7 3 C5.02 3 3.04 3 1 3 C0.67 3.66 0.34 4.32 0 5 C-0.66 4.67 -1.32 4.34 -2 4 C-1.34 2.68 -0.68 1.36 0 0 Z " fill="#2E2E2E" transform="translate(269,242)"/>
<path d="M0 0 C0.66 0 1.32 0 2 0 C2 3.96 2 7.92 2 12 C1.34 12 0.68 12 0 12 C-0.76173392 7.6835078 -1.16063604 4.25566547 0 0 Z " fill="#010101" transform="translate(155,243)"/>
<path d="M0 0 C2.31 0 4.62 0 7 0 C7 0.99 7 1.98 7 3 C4.69 3 2.38 3 0 3 C0 2.01 0 1.02 0 0 Z " fill="#D9D9D9" transform="translate(341,250)"/>
<path d="M0 0 C0.33 0.66 0.66 1.32 1 2 C4.02934491 2.65772428 4.02934491 2.65772428 7 3 C6.01 4.485 6.01 4.485 5 6 C2.525 5.01 2.525 5.01 0 4 C0 2.68 0 1.36 0 0 Z " fill="#131313" transform="translate(268,245)"/>
<path d="M0 0 C0 3.75366417 -1.11420063 5.78715662 -3 9 C-3.99 9.33 -4.98 9.66 -6 10 C-4.6302836 6.00499382 -2.74277578 3.19990508 0 0 Z " fill="#E5E5E5" transform="translate(292,181)"/>
</svg>
